<?xml version="1.0" encoding="utf-8"?>
<!-- Generator: Adobe Illustrator 24.1.2, SVG Export Plug-In . SVG Version: 6.00 Build 0)  -->
<svg version="1.1" id="Layer_1" xmlns="http://www.w3.org/2000/svg" xmlns:xlink="http://www.w3.org/1999/xlink" x="0px" y="0px"
	 viewBox="0 0 80 80" style="enable-background:new 0 0 80 80;" xml:space="preserve">
<style type="text/css">
	.st0{fill:#191932;}
</style>
<g>
	<g>
		<g>
			<path class="st0" d="M44.33,73.8c4.39-4.13,6.58-9.5,6.58-16.1c0-4.17-0.91-7.85-2.73-11.04c-1.82-3.19-4.23-5.68-7.24-7.48
				c-3.01-1.8-7.82-4.18-14.44-7.14c-6.92-3.11-11.71-5.92-14.36-8.42c-2.69-2.47-4.03-5.48-4.03-9.05c0-2.96,1.07-5.68,3.21-8.17
				c2.14-2.48,5.49-3.73,10.07-3.73c4.81,0,9.03,1.69,12.68,5.07c3.65,3.37,6.2,8,7.63,13.88h2.5V1.42h-2.5
				c-0.23,2.43-1.21,4.69-2.95,6.77c-3.03-3.34-5.98-5.54-8.85-6.6S23.97,0,20.72,0C14.89,0,10.07,1.83,6.27,5.49
				s-5.7,8.24-5.7,13.74c0,3.6,0.88,7,2.64,10.19s4.21,5.77,7.35,7.76s7.79,4.32,13.96,6.97c6.92,2.96,11.69,5.73,14.3,8.31
				c2.61,2.62,3.92,5.86,3.92,9.73c0,3.83-1.48,7.29-4.45,10.39c-2.97,3.09-7.16,4.64-12.57,4.64c-12.03,0-19.66-7.72-22.87-23.88H0
				v25.05h2.84c0.61-3.22,1.53-6.33,2.78-8.11C11.26,76.76,18.29,80,26.73,80C34.07,80,39.94,77.93,44.33,73.8"/>
		</g>
		<g>
			<path class="st0" d="M80,70c0,5.52-4.48,10-10,10s-10-4.48-10-10s4.48-10,10-10S80,64.48,80,70"/>
		</g>
	</g>
</g>
</svg>
